<?xml version="1.0" standalone="no"?>
<!DOCTYPE svg PUBLIC "-//W3C//DTD SVG 20010904//EN"
 "http://www.w3.org/TR/2001/REC-SVG-20010904/DTD/svg10.dtd">
<svg version="1.0" xmlns="http://www.w3.org/2000/svg"
 width="204.000000pt" height="204.000000pt" viewBox="0 0 204.000000 204.000000"
 preserveAspectRatio="xMidYMid meet">
<metadata>
Created by potrace 1.11, written by Peter Selinger 2001-2013
</metadata>
<g transform="translate(0.000000,204.000000) scale(0.100000,-0.100000)"
fill="#000000" stroke="none">
<path d="M0 1805 c0 -150 4 -235 10 -235 6 0 10 -5 10 -11 0 -5 -4 -7 -10 -4
-7 4 -10 -257 -10 -774 l0 -781 40 0 39 0 4 147 3 148 2 -147 2 -148 265 0
265 0 -2 149 c-2 82 0 147 5 144 4 -2 7 -69 7 -149 l0 -144 264 0 265 0 4 53
3 52 2 -52 2 -53 435 0 435 0 0 450 0 450 -29 0 -30 0 0 -96 c0 -53 -2 -98 -5
-102 -3 -3 -6 16 -6 41 0 38 -3 47 -17 47 -17 1 -17 1 0 14 11 8 17 27 17 50
l0 36 -135 0 -135 0 0 -84 c0 -80 1 -85 23 -88 14 -2 23 -11 25 -25 2 -13 -1
-23 -6 -23 -6 0 -8 10 -5 21 5 19 3 21 -20 17 l-27 -5 0 93 0 94 -130 0 -130
0 0 -54 0 -54 -75 5 -75 6 0 -92 0 -91 -64 0 -63 0 -7 77 c-3 42 -6 100 -6
129 l0 53 -137 4 -138 3 138 2 137 2 0 88 c0 48 -3 117 -7 155 l-6 67 -76 0
c-52 0 -71 -3 -61 -10 13 -8 12 -12 -4 -27 -10 -10 -16 -12 -12 -5 5 8 0 12
-12 12 -13 0 -19 6 -18 18 1 13 -8 18 -41 20 l-43 3 0 94 0 94 -52 4 -53 3 54
2 54 2 -5 50 -5 50 138 0 138 0 4 93 c1 50 4 -17 5 -150 l2 -243 130 0 130 0
0 220 0 220 -54 0 c-51 0 -56 2 -75 34 -27 43 -27 57 -1 23 11 -14 20 -30 20
-36 0 -7 23 -11 60 -11 l60 0 2 98 c1 53 3 76 5 50 l4 -48 270 0 269 0 0 145
0 145 -130 0 -130 0 0 -100 c0 -60 -4 -100 -10 -100 -6 0 -10 40 -10 100 l0
100 -277 0 -276 -1 5 -157 c3 -91 2 -130 -2 -92 -4 36 -8 107 -9 158 l-1 92
-560 0 -560 0 0 -235z m1450 145 c0 -5 -4 -10 -10 -10 -5 0 -10 5 -10 10 0 6
5 10 10 10 6 0 10 -4 10 -10z m390 -131 c0 -12 -27 -11 -35 1 -11 17 5 32 21
19 8 -6 14 -15 14 -20z m-760 -5 c0 -8 -5 -12 -10 -9 -6 4 -8 11 -5 16 9 14
15 11 15 -7z m830 -4 c0 -22 -7 -25 -29 -11 -16 10 -6 31 15 31 8 0 14 -9 14
-20z m-674 -117 c-1 -37 -7 -41 -27 -16 -10 12 -11 17 -2 20 7 2 10 10 7 17
-3 7 1 13 9 13 9 0 13 -12 13 -34z m-636 -30 c0 -21 -3 -24 -9 -14 -5 8 -7 20
-4 28 8 21 13 15 13 -14z m-23 -160 c-2 -27 -3 -5 -3 47 0 52 1 74 3 48 2 -27
2 -69 0 -95z m261 116 c-2 -6 -8 -10 -13 -10 -5 0 -11 4 -13 10 -2 6 4 11 13
11 9 0 15 -5 13 -11z m202 -29 c0 -5 -2 -10 -4 -10 -3 0 -8 5 -11 10 -3 6 -1
10 4 10 6 0 11 -4 11 -10z m-380 -10 c0 -5 -7 -10 -16 -10 -8 0 -12 5 -9 10 3
6 10 10 16 10 5 0 9 -4 9 -10z m60 -14 c0 -3 -4 -8 -10 -11 -5 -3 -10 -1 -10
4 0 6 5 11 10 11 6 0 10 -2 10 -4z m-54 -33 c-10 -10 -19 5 -10 18 6 11 8 11
12 0 2 -7 1 -15 -2 -18z m104 -18 c0 -7 -8 -19 -17 -24 -10 -6 -12 -11 -5 -11
6 0 12 -4 12 -9 0 -5 -9 -7 -19 -4 -13 3 -23 -2 -31 -17 -6 -12 -18 -19 -25
-16 -9 3 -12 0 -8 -10 4 -10 0 -12 -10 -8 -16 6 -12 34 4 34 5 0 8 10 6 23 -1
16 3 22 16 21 9 -1 17 4 17 11 0 12 9 16 53 24 4 0 7 -6 7 -14z m490 -21 c0
-3 -6 -12 -14 -19 -17 -17 -30 -7 -15 12 12 13 29 18 29 7z m-620 -14 c0 -5
-4 -10 -10 -10 -5 0 -10 5 -10 10 0 6 5 10 10 10 6 0 10 -4 10 -10z m24 -94
c-4 -11 4 -16 28 -19 l33 -4 -37 -1 c-32 -2 -38 1 -38 18 0 11 4 20 10 20 5 0
7 -6 4 -14z m293 -268 c-3 -8 -6 -5 -6 6 -1 11 2 17 5 13 3 -3 4 -12 1 -19z
m71 -33 c9 -9 -27 -35 -41 -29 -8 3 -18 1 -22 -5 -3 -6 -10 -11 -15 -11 -9 0
-8 19 3 37 4 6 1 14 -5 16 -7 3 7 4 32 1 24 -3 46 -7 48 -9z m92 -25 c0 -5 -4
-10 -10 -10 -5 0 -10 5 -10 10 0 6 5 10 10 10 6 0 10 -4 10 -10z m368 -221
c-2 -6 -8 -10 -13 -10 -5 0 -11 4 -13 10 -2 6 4 11 13 11 9 0 15 -5 13 -11z
m92 -59 c0 -5 -4 -10 -9 -10 -6 0 -13 5 -16 10 -3 6 1 10 9 10 9 0 16 -4 16
-10z m-163 -112 c-3 -7 -5 -2 -5 12 0 14 2 19 5 13 2 -7 2 -19 0 -25z m-459
-85 c-16 -2 -40 -2 -55 0 -16 2 -3 4 27 4 30 0 43 -2 28 -4z m170 0 c-15 -2
-42 -2 -60 0 -18 2 -6 4 27 4 33 0 48 -2 33 -4z m-791 -39 c-3 -3 -12 -4 -19
-1 -8 3 -5 6 6 6 11 1 17 -2 13 -5z m208 -363 l0 -37 -31 20 c-28 19 -30 23
-17 42 22 34 48 20 48 -25z m112 17 c-3 -7 -5 -2 -5 12 0 14 2 19 5 13 2 -7 2
-19 0 -25z m-60 -30 c-3 -8 -6 -5 -6 6 -1 11 2 17 5 13 3 -3 4 -12 1 -19z"/>
<path d="M1700 1615 l0 -115 130 0 130 0 0 115 0 115 -130 0 -130 0 0 -115z
m80 -70 c0 -8 -7 -15 -15 -15 -8 0 -15 7 -15 15 0 8 7 15 15 15 8 0 15 -7 15
-15z"/>
<path d="M1980 1615 l0 -115 30 0 30 0 0 115 0 115 -30 0 -30 0 0 -115z"/>
<path d="M1699 1353 c-1 -71 -1 -131 0 -135 0 -3 4 -74 7 -157 l7 -151 124 0
123 0 0 31 c0 16 -4 28 -8 25 -13 -8 -29 8 -36 37 -4 19 -3 26 4 22 5 -3 10
-15 10 -25 0 -20 23 -21 42 -2 9 9 9 12 0 12 -7 0 -12 7 -12 15 0 8 -4 15 -10
15 -5 0 -10 7 -10 15 0 8 4 15 9 15 11 0 15 346 5 386 -6 24 -7 24 -130 24
l-124 0 -1 -127z"/>
<path d="M1980 1107 c0 -46 5 -88 11 -94 8 -8 8 -13 0 -17 -6 -4 -11 -25 -11
-47 0 -37 2 -39 30 -39 l30 0 0 140 0 140 -30 0 -30 0 0 -83z"/>
</g>
</svg>
